<svg xmlns="http://www.w3.org/2000/svg" width="545.999" height="622" viewBox="0 0 545.999 622">
  <g id="Group_293" data-name="Group 293" transform="translate(0)">
    <path id="Path_1322" data-name="Path 1322" d="M70.737,161.125l132.3-70.738,48.468-18.339,28.819,41.918,19.649,32.749,55.017,113.967,37.988,31.439L444.07,440.146,251.509,521.363,96.936,258.062,65.5,191.254Z" fill="#fff"/>
    <path id="Path_1323" data-name="Path 1323" d="M178.027,127.57c-.262-2.882,3.569-1.507,3.5,2.325,0,5.239-4.487,5.207-7.3,2.718-1.179-1.048-.786-2.489-.688-3.8a2.95,2.95,0,0,1,.983-.393c.327,0,.491.36.72.589a1.67,1.67,0,0,0,2.784-1.44Z" fill="#d8e9ff"/>
    <path id="Path_1324" data-name="Path 1324" d="M197.677,149.413c.885-.786.393-.884,2.162.458a14.793,14.793,0,0,1-4.782,4.454c-.72.491-1.179,0-1.571-.491S192.831,153.768,197.677,149.413Z" fill="#d9d9d9"/>
    <path id="Path_1325" data-name="Path 1325" d="M194.4,145.614c.754-.655.819-.295,1.736.688a10.776,10.776,0,0,1-4.355,4.453c-.983.557-1.179-.294-1.572-.753S189.491,149.937,194.4,145.614Z" fill="#d9d9d9"/>
    <path id="Path_1326" data-name="Path 1326" d="M188.377,216.155a3.611,3.611,0,0,1,1.376.786,26.827,26.827,0,0,1-14.279,1.408c-1.506,0-1.768,1.343-.458,2.161,9.464,5.961.393-3.111,14.638,20.272-6.549,3.93-6.549,4.323-7.008,3.275,0,0-4.65-8.548-7.663-14.8-5.305-11.036-11-28.917-10.774-32.748C165.879,197.718,178.815,212.225,188.377,216.155Z" fill="#d9d9d9"/>
    <path id="Path_1327" data-name="Path 1327" d="M247.948,221.362a37.236,37.236,0,0,1-11.626,29.474c-1.506,1.474-4.847,5.339-6.55,4.061-2.652-1.834-5.01,0-4.683-1.408.557-2.685-2.456-2.947-.491-4.29,6.157-4.159,7.008-4.257,10.414-9.825a36.942,36.942,0,0,0,.459-34.452c-9.268-19.387-40.739-47.125-38.644-48.73,7.827-6.124-.327-7.991,25.119,18.47C236.453,190.185,245.786,201.779,247.948,221.362Z" fill="#d9d9d9"/>
    <path id="Path_1328" data-name="Path 1328" d="M192.536,142.011c.721,1.179,0,1.506-3.733,4.781-.852.753-1.245.393-4.159-2.227-1.081-.982-6.55.295-10.873-.753a13.984,13.984,0,0,1-4.224-26.2c1.211-.622,1.244-.622,1.67.655,1.8,5.5,1.965,5.731,1.015,6.55-5.993,5.764,1.572,16.08,10.021,11.069,3.275-2.03,4.749-13.1-2.947-13.361-1.6,0-2.718-.557-2.948-2.424-.294-2.882-2.521-4.683,0-5.4,7.3-1.932,16.375,3.831,17.03,14.082C191.586,137.59,190.571,138.7,192.536,142.011Z" fill="#d9d9d9"/>
    <path id="Path_1329" data-name="Path 1329" d="M322.124,215.991c1.474,2.391,37.006,65.334,35.27,64.974-7.008-1.539-7.794-3.275-15.424-9.072-2.882-2.226-7.107,1.278-6.124,6.943,2.849,16.375,25.543,7.958,10.414,27.87-.426.556-2.555,0-4.061,0-4.028.425-2.98,4.093-8.089,8.613a15.388,15.388,0,0,0-2.685,11.756c1.277,4,12.378-3.274-76.239,46.471-28.458,15.982-24.922,15.687-45.422,26.2-2.391,1.212-1.9,0-10.414-14.737-72.44-125.887-72.865-99.655-48.73-115.472,15.49-10.153,28-18.176,84.982-49.779,2.948-1.637.59,16.375-7.3,23.481-1.016.95-.328,0-2.522-3.275-.917-1.441-2.423.721-1.965,1.441,2.751,4.389-4.65,5.371-2.325,10.513.688,1.539-.655,6.091,3.733,5.469a4.85,4.85,0,0,1,4.127,1.08c3.274,2.62,20.173-11,21.483-35.074.458-8.154-2.784-10.447,0-11.822,12.509-6.55,44.406-25.479,47.78-27.476C305.062,180.295,303.359,185.96,322.124,215.991Zm-4.487,47.944c4.683-1.375,3.079-3.995,2.981-5.3a3.276,3.276,0,0,0-2.948-3.078c-4.29-.655-11.036-5.8-17.193-4.094-2.292.655.622-.589,3.275-16.374.721-4.52-7.27-5.5-8.253,0a67.435,67.435,0,0,1-3.471,14.114l-.688-.851c-5.37-9.3-4.159-8.613-8.645-8.22a1.834,1.834,0,0,0-1.736,1.572c-.753,2.653,0,4.356,3.275,10.283,10.774,19.387,11.56,25.053,17.455,20.959,1.441-.982.884-2.423.982-3.6.164-2-.589-2.26-4.06-8.777-.524-.982,3.6-1.6,5.894-.655,6.157,2.391,9.825,5.011,13.132,4.061Zm-7.27,56.853c2.489-1.7,1.932-7.4-1.637-7.172s-4,.982-12.87,7.565c-2.686,1.965-1.572,3.078-7.467-4.258-.393-.491-.524-.884.295-1.31,1.866-.949,11.5-6.55,12.084-9.824a6.018,6.018,0,0,0-.2-1.54,2.816,2.816,0,0,0-3.274-2.783c-5.306,0-13.1,10.447-15.065,7.827-2.751-3.93-3.962-5.044-3.275-5.338a47.68,47.68,0,0,0,9.825-6.059c6.091-3.471,4.257-2.62,4.225-5.633a3.274,3.274,0,0,0-4.061-2.652,18.179,18.179,0,0,0-8.351,4.977c-6.222,3.767-8.908,4.487-9.628,8.777-.655,3.734,1.244,4.094,3.275,7.467a161.291,161.291,0,0,0,12.837,17.16C291.046,333.625,297.89,329.3,310.367,320.788Zm-42.573-34.42c8.482,4.946,21.582-2.161,21.582-8.809,0-9.464-7.664-4.978-7.729-4.323a7.073,7.073,0,0,1-9.825,4.683,13.1,13.1,0,0,1-7.237-14.77c.688-2.194,1.277-.851,3.275-1.309,3.733-.786,3.078-5.273,1.473-6.976-10.938-11.462-23.12,19.06-1.637,31.439Zm13.755,49.582c.327-4.552-1.147-4.355-4.651-9.038-13.59-18.241-11.494-15.982-14.082-18.471a4.585,4.585,0,0,0-6.549,2.063c0,.786-.622,1.54-.852,2.326-3.275,10.774-2.751,11.036-3.766,11.069-15.817.818-8.383-.819-17.422.589-2.292.36-2.751,4.389-1.146,6.55,12.281,18.012,12.281,24.66,17.389,22.171s-10.184-21.811-7.2-21.189a26.555,26.555,0,0,0,7.565,0c9.3-.589,5.4-.589,10.348-12.8,4.159,3.962,8.875,13.1,14.671,18.241a3.733,3.733,0,0,0,5.6-1.572ZM252.4,297.372a4.29,4.29,0,0,0,8.024-1.343c-2.62-8.809-10.84-18.077-18.8-27.181-1.408-1.6-4.945-1.6-5.829,0-2.1,4.093-.1,3.635,16.505,28.459Zm-2.816,6.845c1.474-1.736,0-8.155-4.388-6.747s-4.258,1.834-11.691,6.779c-1.507.983-.623.623-4.323-5.141a144.288,144.288,0,0,0-10.9-15.1c-3.275-3.275-6.91-1.441-6.91.753,0,3.7,1.67,3.733,5.272,9.366,15.588,24.431,9.006,26.2,28.852,13.493a14.124,14.124,0,0,0,4-3.472ZM220.866,319.8a5.866,5.866,0,0,0,1.048-5.764c-1.212-4.519-4.651-2.685-5.306-2.62-3.995.328-2.161,3.505-8.056,8.057a11.233,11.233,0,0,1-14.442-7.107c-2.1-5.5,1.6-12.608,3.275-11.4a3.668,3.668,0,0,0,5.043-2.03c.917-4.781-4.748-9.53-11.56-4.847s-8.809,20.7.36,30a18.274,18.274,0,0,0,26.2.328c1.31-1.474,2.129-3.242,3.34-4.683Z" fill="#e4fd6f"/>
    <path id="Path_1330" data-name="Path 1330" d="M416.9,355.862c-2.26.393-24.005-3.013-27.869-3.275-24.791-1.572-32.552.557-70.737,7.4-15.392,2.784-25.314,4.487-41.558,12.9-11.789,6.124-19.649,10.251-24.987,17.194a16.734,16.734,0,0,0-.753,19.649c8.973,13.394,31.406,12.346,32.29,14.606,3.668,9.1-3.275,10.218-11.331,11.462-1.31.2-2.718-4.945-6.943-3.6-6.058,1.965-7.925.556-10.053,1.572-5.175,2.489-9.6,4.257-8.613,10.9.589,4.028,3.9,3.963,3.275,5.6a10.384,10.384,0,0,0,1.113,9.432c.426.786,2.522,2,2.227,2.325-1.539,1.9-.819,3.995-.59,6.059.524,4.584,4.028,4.355,3.963,6.058-.2,4.683,2.554,6.157,6.844,8.417s9.366,0,11.921,1.015c4.224,1.6,23.579,1.31,28.589-5.175a8.88,8.88,0,0,1,7.729-4.421c1.31,0,.72.492,1.932,4.814.884,3.046,2.358,3.963,12.87,3.275,18.536-1.179,15.556,6.288,15.752-36.842a29.157,29.157,0,0,0-2.325-11.2c-1.408-3.472-5.469-2.162-18.568-2.424-3.537,0-7.794-.491-9.039,3.079-1.637,4.748-1.408,4.814-2.358,5.01-3.93.852-8.678-.262-9.038-4.323a20.048,20.048,0,0,0-3.57-11.56c-1.244-1.867-2.26-.753,22.171-6.026,9.2-1.965,13.1-4.224,22.367-.36,21.712,9.039,27.7,12.8,45.848,14.606.688,0,.917.295.884.982-2.489,33.961-.688,31.8-2.554,32.749-91.7,50.6-112.2,70.05-123.233,59.178-9.464-9.334-22.465-33.306-23.873-35.828-77.09-134.27-92.875-159.978-125.362-218.5-7.335-12.9-7.532-11.691-4.977-12.051,3.635-.491,5.043,3.275,11.625,2.947,3.275,0,4.978-.458,17.684-5.436,3.275-1.343,3.9-3.6,7.631-4.552,6.32-1.638,12.706-8.417,9.824-14.279-.949-2.03,2.751-2.685.655-8.776a5.861,5.861,0,0,0-2.521-3.9c-1.015-.523,4.257-5.174-2.031-12.215-1.08-1.212,3.668-6.222-2.325-10.971a14.934,14.934,0,0,0-13.1-.589c-4.683,2-9.2.229-10.218,6.55,0,.524,0,.884-.687,1.048-23.383,6.549-8.122-8.351-21.221-18.995a7.86,7.86,0,0,0-7.336-1.572c-4.716,1.408-1.179,6.124.655,14.213,1.277,5.666-1.6,8.351,1.244,16.047,2.227,5.96-1.244,7.467-7.172,9.825-1.212.524-1.507.36-2.129-.753-23.513-42.05-19.354-32.946-20.861-36.384-2.98-6.812-17-21.058,5.927-37.956,9.825-7.205,88.258-46.93,91.7-48.6,1.474-.753,1.114-1.605,3.995,8.155.754,2.62-8.219,3.864-10.25,14.18-2.292,11.691,7.729,22.367,21.385,20.239,3.046-.491,0,2.554,4.814,3.275,3.864.687,1.277,3.275,3.668,3.635,2.947.262,1.081,3.831,3.537,3.8.556,0,0,0,22.924,25.216,12.346,13.493,12.641,13.1,19.649,28.688a9.39,9.39,0,0,1,.687,3.013c0,.328-43.064,25.839-44.21,23.809s-3.275-4.847-4.519-7.369-3.013-5.895-4.585-8.809c-.852-1.638,1.113,0,7.336-2.456,2.619-1.016,4.912-2.489,2.816-4.389-3.046-2.751-5.731-1.539-14.966-10.021-9.825-8.973-15.85-15.719-16.112-10.9-1.048,17.16,18.6,51.186,18.633,51.186.95,1.867-46.47,26.985-49.777,31.8-1.146,1.67,12.477,22.924,26.2,44.669,13.1,20.468,22.924,39.3,48.336,80.89,3.472,5.666-.72,2.98,119.565-64.155,11.266-6.288,10.414-6.55,12.281-6.354,1.015,0,2.259-.425,3.078,0s.819,1.8,1.474,2.522c5.96,6.55,9.333,2.653,9.628,4.192.426,2.489,2.554,3.471,4.29,4.814a6.554,6.554,0,0,0,5.436.852c2-.328,2.784,3.9,8.384,2.423s5.633-1.146,10.119-6.55c3.275-3.831,3.963-1.7,8.482-7.139a79.53,79.53,0,0,0,8.908-11.036c.556-.885.785-.95,2.718,3.078C403.994,334.346,416.864,355.8,416.9,355.862ZM116,152.491c5.01,6.55,4.454.622,4.126-12.477,0-2-1.9-2.162-3.275,0-2.587,4.093-3.5,5.895-6.55,10.381-.491.721-.36,2.1,1.474,1.8C113.122,152.065,114.825,150.919,116,152.491Zm-11.822,7.369c2,.294,2.488-1.474,2.423-2.948s-3.5-7.991-7.172-6.124c-.917.459-1.212,2.325-1.015,3.079a7.466,7.466,0,0,0,5.764,5.993Zm-7.14,4.093c2,.262,2.489-1.506,2.423-2.947s-3.5-7.991-7.237-6.157c-.95.458-1.179,2.325-1.015,3.275a7.531,7.531,0,0,0,5.829,5.829ZM91.9,166.868a2,2,0,0,0-3.963-.59C87.447,169.259,91.639,170.6,91.9,166.868Zm-2.292-6.222c0-2.162-4.355-3.275-4.421-.164C85.024,162.971,89.379,163.92,89.608,160.646Zm-7.27,11.331c-.2,1.179,3.275,3.275,3.275-2.653,0-3.733-2.947-1.834-3.275-3.57a7.572,7.572,0,0,0-.721-2.358,3.276,3.276,0,0,0-4.65-.851,4.913,4.913,0,0,0-.753,4.323c.2.229.753.72,1.048.262s.819-1.932,1.343-1.736a1.769,1.769,0,0,1,1.048,2.063c0,.852-.655,1.212-.2,1.769s1.768-.721,2.489.2.491,1.376.295,2.555ZM75.1,176.5c2,.295,2.489-1.474,2.423-2.947s-3.5-7.958-7.237-6.124c-.95.458-1.212,2.325-1.015,3.111A7.5,7.5,0,0,0,75,176.5Z" fill="#d8e9ff"/>
    <path id="Path_1331" data-name="Path 1331" d="M386.539,471.433c0,5.436,1.147,5.764-.589,6.713-2.62,1.376-69.689,39.921-84.327,47.912-51.055,27.9-36.679,30.948-91.27-61.044-4.618-7.729-63.4-114.621-78.2-137.873-33.764-53.413-53.544-94.775-65.824-113.868-.229,0-9.825-15.392-9.825-18.863a.951.951,0,0,0,0-.426c-3.013-4.847.917-15.457,1.768-13.493,5.076,11.626,4.945,11,26.723,47.945,2.456,4.159,18.667,34.124,29.474,52.857,16.571,28.786,19.42,28.458,61.633,104.469,3.307,6.353,21.581,36.548,39.92,69.3,10.807,19.158,21.123,40.674,30.129,54.756,3.6,5.6,6.549,9.5,9.3,13.1,8.417,11.233,13.886,9.825,19.158,8.286,9.825-2.98,32.749-16.178,110.952-60.488C386.277,470.319,386.507,470.418,386.539,471.433Z" fill="#d9d9d9"/>
    <path id="Path_1332" data-name="Path 1332" d="M301.491,155.569s75.322,125.4,74.241,127c-2.522,3.995-7.467,6.549-9.825,3.274-7.139-9.824-1.375-4.29-37.66-66.709-25.97-44.67-23.907-41.1-26.92-39.757s-51.611,28.458-51.677,28.491c-2.423,1.441,0-3.275-14.8-22.466-5.8-7.532-16.866-18.634-26.2-28.982-2.98-3.275-4.912-6.19-7.4-8.744s-1.015-2.817-2.522-3.275c-2.063-.655-1.67-1.507-1.866-3.275s-2.227-.328-2.522-1.245-.786-1.244-.458-2.194a35.88,35.88,0,0,0,1.8-6.844,16.866,16.866,0,0,0-12.117-18.634c-7.434-1.834-8.81,1.735-9.825-1.8-.458-1.375-1.768-5.894-1.768-6.058,0-3.013-6.55,0,20.271-13.722,60.781-31.177,53.937-31.57,90.943,31.537.458.786.458,1.212-.426,1.834-11.593,8.056-8.809-2.03-18.241-6.55-5.371-2.456-7.4-6.058-12.019-11.986s-13.3,7.074-2.914,16.932c3.733,3.569,5.894,4.257,6.287,8.121s-4.846,7.467-7.63,9.825c-.524.393-2.161-.59-3.471-.852-4.323-.851-3.9,2.751-10.513,6.55a23.337,23.337,0,0,0-4.814,6.91,7.8,7.8,0,0,0,6.059,10.644c2.26.229-.884,3.668,6.746,8.318.852.524,3.275.327,3.275,1.081a9.136,9.136,0,0,0,8.318,7.859c1.441,0,1.572,4.389,7.729,4.356a13.394,13.394,0,0,0,10.774-3.7c3.93-3.045,4.716-1.179,8.253-3.7,13.656-9.825,14.966-8.875,17.586-20.927a4.69,4.69,0,0,1,.393-1.015C299.624,153.539,300.247,153.473,301.491,155.569ZM247.1,85.454c2.784-1.474.786-2.751-2.031-6.714-.982-1.408,0-1.6-9.267,3.275-3.9,2.03-5.4,2.522-4.749,3.832a11.861,11.861,0,0,0,4.912,5.207C238.123,90.1,247.03,85.487,247.1,85.454ZM225.482,98.095c3.078,0,3.275-2.063,1.474-4.487-4.127-5.927-4.159-6.55-6.223-6.321s-1.67,3.733-.556,5.338C223.877,97.767,224.434,98.095,225.482,98.095Zm-4.88,2.783c1.965-1.244-2.456-8.645-5.272-7.2s.589,5.5,2.751,7.368a2.223,2.223,0,0,0,2.521-.164Zm-.72.786c-.262-.2,0-.2-.426,0,.1.2,0,.164.262,0Zm-8.547.393c0,2.882,4.355,4,4.322.688s-4.584-3.7-4.486-.688Z" fill="#d8e9ff"/>
    <path id="Path_1333" data-name="Path 1333" d="M176.131,411.339c1.31,1.7,27.345,50.2,27.28,50.138-31.275-15.851-44.6-12.8-62.485-37.727-6.549-9.333.852-22.334,15.261-20.435C178.031,406.2,171.743,405.575,176.131,411.339Z" fill="#ffc6a6"/>
    <path id="Path_1334" data-name="Path 1334" d="M129.238,330.612c35.728,58.325,28.393,48.337,23.12,45-24.3-15.425-20.468-7.664-46.7-29.769-7.467-6.32-13.1-12.8-13.3-23.415,0-3.995,2-6.091,4.978-8.809,1.539-1.376,7.826-1.245,9.824-1.179a64.409,64.409,0,0,1,11.593,3.013C121.28,316.105,120.854,316.956,129.238,330.612Z" fill="#ffc6a6"/>
    <path id="Path_1335" data-name="Path 1335" d="M251.415,403.643c-1.539-9.432-.589-14.9,16.374-22.924,22.728-10.807,32.978-17.226,39.3-17.521s35.859-6.877,39.854-6.877,43.327-1.736,51.088-.557,22.367,2.292,22.367,2.292L357.586,247.038s32.977,23.513,39,29.474,24.66,22.367,29.245,27.247S451.672,329.3,459.4,351.376c6.32,11.2,20.075,28.131,24.954,37.6a149.375,149.375,0,0,1,10.611,37.563S504.43,475,507.312,485.482s10.61,52.792,11.756,64.811,3.275,25.839,6.878,34.452,18.077,31.831,18.077,31.831c-18.7.754-163.35,2.326-167.509,2,0,0-9.2-22.662-11.494-25.511s-22.073-6.026-26.4-8.318-24.07-23.252-26.952-26.4-22.662-22.924-22.662-22.924l100.112-56.787s0-42.181-.294-48.5a248.6,248.6,0,0,1-24.66-6.55c-7.467-2.882-29.834-11.757-34.713-10.9S298.18,419,291.6,419.559,254.264,421.426,251.415,403.643Z" fill="#ffc6a6"/>
    <path id="Path_1336" data-name="Path 1336" d="M314,435.868s-1.9-4.487,6.156-3.079c0,0,9.661.2,12.248.2s7.3,1.146,7.6,4.519c.524,5.567,0,18.044,0,38.054,0,1.768.2,4.323-5.436,4.519s-16.375.426-16.375.426-3.6,2.259-2.554-5.044C317.213,464.359,314.986,445.234,314,435.868Z" fill="#bed4fc"/>
    <path id="Path_1337" data-name="Path 1337" d="M540.749,111.849c-15.49,8.843-12.478,21.058-33.9,16.375-9.6-2.063-11.822-2.391-16.374.557a53.359,53.359,0,0,0-9.3,7.4c-5.764,6.844-5.731,8.515-8.449,9.366s-6.91-.982-10.218-1.343c-46.044-5.207-32.748,28.885-54,27.051a47.478,47.478,0,0,0-9.824-1.015c-9.334,1.965-14.606,6.026-16.669,15.621-.3,1.375.393,1.867,1.735,1.8,3.275,0,1.474-8.482,11.692-11.92a14.729,14.729,0,0,1,10.217,0,18.6,18.6,0,0,0,21.287-11.037c12.608-25.544,38.381-12.412,45.847-13.885a8.807,8.807,0,0,0,6.714-4.389,44.319,44.319,0,0,1,12.313-12.313c4.29-2.817,5.666-2.653,11.2-1.474,24.169,5.207,21.352-1.015,38.775-15.294,1.113-.917,3.9.819,4.191-2.685C546.218,111.718,542.845,110.67,540.749,111.849Z" fill="#000001"/>
    <path id="Path_1338" data-name="Path 1338" d="M216.507,311.356c-4,.36-2.161,3.5-8.056,8.056a11.233,11.233,0,0,1-14.442-7.106c-2.1-5.5,1.6-12.608,3.275-11.4a3.668,3.668,0,0,0,5.043-2.03c.917-4.781-4.748-9.53-11.56-4.847s-8.809,20.7.36,30a18.273,18.273,0,0,0,26.2.327c1.244-1.408,2.063-3.275,3.275-4.617a5.867,5.867,0,0,0,1.048-5.764C220.6,309.457,217.326,311.291,216.507,311.356Z" fill="#000001"/>
    <path id="Path_1339" data-name="Path 1339" d="M249.488,304.151c1.474-1.736,0-8.154-4.388-6.746s-4.258,1.834-11.692,6.779c-1.506.982-.622.622-4.322-5.142a144.4,144.4,0,0,0-10.906-15.1c-3.274-3.275-6.909-1.408-6.909.754,0,3.7,1.67,3.733,5.272,9.366,15.588,24.43,9.006,26.2,28.851,13.492A14.1,14.1,0,0,0,249.488,304.151Z" fill="#000001"/>
    <path id="Path_1340" data-name="Path 1340" d="M543.929,264.067c-3.275-1.376-8.023-1.114-13.1-2.62-9.4-2.685-13.656-8.318-22.924-7.369a92.167,92.167,0,0,1-15.228,1.8c-7.205-.557-7.794-.917-18.667-9.825-23.906-19.649-22.531-1.212-54.166,2.292-9.268,1.016-11.233-1.866-17.422-6.222-2.391-1.67-3.865,1.31-2.129,2.915,5.535,5.141,10.48,8.515,18.8,7.663a117.749,117.749,0,0,0,15.916-2.227c16.374-4.29,16.374-16.374,35.859-.622,12.772,10.152,14.966,13.427,35.467,9.6,12.28-2.292,9.3,5.993,36.023,9.17h.491C545.435,268.39,546.778,265.115,543.929,264.067Z" fill="#000001"/>
    <path id="Path_1341" data-name="Path 1341" d="M262.714,308.376a4.585,4.585,0,0,0-6.549,2.063c0,.786-.622,1.54-.852,2.326-3.275,10.774-2.751,11.036-3.766,11.069-15.817.818-8.383-.819-17.422.589-2.292.36-2.751,4.388-1.146,6.55,12.28,18.011,12.28,24.659,17.389,22.17s-10.185-21.81-7.2-21.188a26.622,26.622,0,0,0,7.564,0c9.3-.589,5.4-.589,10.349-12.8,4.159,3.963,8.875,13.1,14.671,18.241a3.734,3.734,0,0,0,5.731-1.6c.328-4.552-1.146-4.356-4.65-9.039C263.173,308.605,265.3,310.963,262.714,308.376Z" fill="#000001"/>
    <path id="Path_1342" data-name="Path 1342" d="M308.726,313.55c-3.6.262-4,.982-12.871,7.565-2.685,1.965-1.572,3.078-7.466-4.258-.393-.491-.524-.884.295-1.309,1.866-.95,11.494-6.55,12.084-9.825a6.01,6.01,0,0,0-.2-1.539A2.817,2.817,0,0,0,297.3,301.4c-5.3,0-13.1,10.447-15.064,7.827-2.751-3.93-3.963-5.043-3.275-5.338a47.731,47.731,0,0,0,9.825-6.058c6.091-3.472,4.257-2.62,4.224-5.633a3.276,3.276,0,0,0-4.061-2.653,18.181,18.181,0,0,0-8.35,5.043c-6.223,3.767-8.908,4.487-9.628,8.777-.655,3.733,1.244,4.094,3.274,7.467a161.3,161.3,0,0,0,12.838,17.16c3.93,5.764,10.774,1.441,23.251-7.139C312.852,319.019,312.3,313.321,308.726,313.55Z" fill="#000001"/>
    <path id="Path_1343" data-name="Path 1343" d="M267.693,286.3c8.58,5.01,21.68-2.1,21.68-8.744,0-9.464-7.664-4.978-7.729-4.323a7.073,7.073,0,0,1-9.825,4.683,13.1,13.1,0,0,1-7.237-14.769c.688-2.194,1.277-.852,3.275-1.31,3.733-.786,3.078-5.273,1.473-6.976C258.392,243.4,246.21,273.924,267.693,286.3Z" fill="#000001"/>
    <path id="Path_1344" data-name="Path 1344" d="M301.721,272.744c1.441-.982.884-2.423.983-3.6.163-2-.59-2.26-4.061-8.777-.524-.982,3.6-1.6,5.895-.655,6.124,2.588,9.824,5.207,13.1,4.258,4.683-1.376,3.078-4,2.98-5.306a3.274,3.274,0,0,0-2.947-3.078c-4.29-.655-11.036-5.8-17.193-4.093-2.293.655.622-.59,3.275-16.375.72-4.519-7.27-5.5-8.253,0a67.429,67.429,0,0,1-3.471,14.115l-.688-.852c-5.371-9.3-4.159-8.612-8.646-8.219a1.865,1.865,0,0,0-1.735,1.572c-.753,2.652,0,4.355,3.275,10.283C295.041,271.172,295.925,276.838,301.721,272.744Z" fill="#000001"/>
    <path id="Path_1345" data-name="Path 1345" d="M159.949,474.708c-12.215,18.8-5.633,12.379-13.984,43.785-9.3,35.009-18.47,35.3-17.422,40.8.557,2.751,3.275,2.948,3.832-.229a30.267,30.267,0,0,1,3.929-6.746c13.558-18.864,18.569-58.948,19.191-61.5a63.239,63.239,0,0,1,7.63-14.933C164.042,474.151,161.652,472.35,159.949,474.708Z" fill="#000001"/>
    <path id="Path_1346" data-name="Path 1346" d="M42.188,270.878c29.146-3.864,22.629,0,28.589,3.013,1.539.753,2.947-.917,1.67-2.751-8.22-11.626-29.474-1.735-42.115-4.192-13.885-2.685-13.689-8.58-27.509-9.824a2.587,2.587,0,0,0-2.816,2c-.229,1.638,4.65,2.522,6.91,2.915C16.514,263.936,21.295,273.629,42.188,270.878Z" fill="#000001"/>
    <path id="Path_1347" data-name="Path 1347" d="M292.388,65.705c-1.605,5.4-5.371,12.444-5.142,14.9s3.275,3.046,3.733.2,9.825-18.11,4.782-23.939c-4.127-4.814-6.223-5.8-6.157-8.842.2-8.449.557-7.336,7.467-25.937,1.768-4.716-2.784-5.109-4.225-1.7C274.081,65.083,296.678,51.3,292.388,65.705Z" fill="#000001"/>
    <path id="Path_1348" data-name="Path 1348" d="M324.773,467.765c-3.275-.524-4.519,6.058-.229,6.157a3.081,3.081,0,0,0,.229-6.157Z" fill="#000001"/>
    <path id="Path_1349" data-name="Path 1349" d="M338.105,139.588a13.462,13.462,0,0,1-.687-7.7c.622-5.305,3.831-6.779,9.267-10.119,1.048-.655,25.708-8.711,23.317-20.665-3.078-15.523-12.182-27.083,17.816-34.779,5.043-1.277,11.3-4.29,12.182-7.565,1.572-5.862,5.3-17.193,11.134-20.206,3.505-1.8-2.226-10.185-10.283,4.356-8.645,15.556.623,13.46-17.716,19.453-7.827,2.554-10.938,3.537-14.115,6.55-7.958,7.5-10.512,9.071-3.635,33.142.491,1.7-.95,3.5-2.293,4.847-11.167,11.265-33.6,9.824-29.473,31.34C334.929,145.057,339.121,141.684,338.105,139.588Z" fill="#000001"/>
    <path id="Path_1350" data-name="Path 1350" d="M254.073,69.21v.2C254.073,69.6,254.17,69.34,254.073,69.21Z" fill="#000001"/>
    <path id="Path_1351" data-name="Path 1351" d="M441.819,577.867c-5.3-4.29-6.222-.59-4.322,1.408a44.442,44.442,0,0,0,9.4,6.55c9.825,4.159,12.707,5.731,12.674,2.227C460.453,584.875,450.17,584.678,441.819,577.867Z" fill="#000001"/>
    <path id="Path_1352" data-name="Path 1352" d="M92.228,154.849c-.95.458-1.179,2.325-1.015,3.275a7.534,7.534,0,0,0,5.829,5.993c2,.262,2.489-1.507,2.423-2.948S95.962,153.015,92.228,154.849Zm3.57,6.091a4.356,4.356,0,0,1-2-2.522c0-.294-.295-.851,0-1.048.95-.425,2.751,2,2.784,2.686S96.518,161.3,95.8,160.94Z" fill="#000001"/>
    <path id="Path_1353" data-name="Path 1353" d="M270.247,171.911c-1.867-2.555-3.93-1.8-5.109-4.716-.884-2.1-1.408-4.978-3.766-6.157-4.061-2.1-2.817-5.731-5.9-9.169a46.221,46.221,0,0,1-4.159-4.978,1.045,1.045,0,0,0-1.113-.589,1.077,1.077,0,0,0-.917.916c-.688,4.029,4.584,5.109,5.763,9.268,2.882,10.218,4.356,2.358,7.86,12.543,1.113,3.275,3.8,2.915,5.829,5.534.721.95,3.275,2.391,4.159.786S271.033,172.992,270.247,171.911Z" fill="#000001"/>
    <path id="Path_1354" data-name="Path 1354" d="M235.7,268.881c-2.031,4.06,0,3.635,16.6,28.425a4.29,4.29,0,0,0,8.023-1.342c-2.619-8.81-10.839-18.078-18.8-27.182C240.253,267.178,236.585,267.178,235.7,268.881Z" fill="#000001"/>
    <path id="Path_1355" data-name="Path 1355" d="M107.458,378.2c-3.275-1.212-22.138,2.947-31.5,7.27a22.069,22.069,0,0,0-11.1,12.117c-7.3,11.986-21.09,4.323-38.054,12.379a4.224,4.224,0,0,0-2.26,4.65c.229,1.146,3.111,2.194,3.537-.262.2-.95.295-1.441,6.714-2.849,19.911-4.454,27.05-.229,33.927-13.525a16.112,16.112,0,0,1,9.825-9.825c7.27-2.98,22.4-7.041,28.229-6.549C109.587,381.766,110.012,379.081,107.458,378.2Z" fill="#000001"/>
    <path id="Path_1356" data-name="Path 1356" d="M99.431,150.789c-.917.458-1.212,2.325-1.015,3.078a7.467,7.467,0,0,0,5.83,5.993c2,.295,2.488-1.474,2.423-2.947S103.1,148.922,99.431,150.789ZM103,156.847a4.2,4.2,0,0,1-2-2.522c0-.294-.327-.851,0-1.015.95-.458,2.751,2,2.784,2.686s-.164,1.244-.851.851Z" fill="#000001"/>
    <path id="Path_1357" data-name="Path 1357" d="M235.962,91.021c2.161-.917,11.069-5.535,11.134-5.567,2.784-1.474.786-2.751-2.03-6.713-.983-1.408,0-1.6-9.268,3.275-3.864,2.03-5.4,2.522-4.748,3.832A11.853,11.853,0,0,0,235.962,91.021Z" fill="#000001"/>
    <path id="Path_1358" data-name="Path 1358" d="M70.186,167.424c-.95.459-1.212,2.326-1.015,3.112A7.5,7.5,0,0,0,75,176.5c2,.294,2.489-1.474,2.423-2.948S73.886,165.558,70.186,167.424Zm1.572,3.57c0-.327-.327-.884,0-1.048.95-.458,2.718,2,2.751,2.685C74.7,174.793,72.314,172.861,71.758,170.994Z" fill="#000001"/>
    <path id="Path_1359" data-name="Path 1359" d="M272.607,466.815c1.933-7.2-2.226-7.2-1.048-11.1,2.358-7.6-1.539-8.646-.229-13.1.2-.622-.327-2.128-1.277-1.343h.295c0,.262-3.275.983-1.146,7.827,1.6,5.437-2.948,7.009.687,12.74a7.467,7.467,0,0,1,0,4.781c-1.015,4.061.688,5.207,1.769,8.318.556,1.539,1.277,4.847,3.275,3.7s-.426-3.275-.492-4.291C274.179,470.876,271.559,470.647,272.607,466.815Z" fill="#000001"/>
    <path id="Path_1360" data-name="Path 1360" d="M211.168,102.058c0,2.882,4.356,4,4.323.687S211.07,99.045,211.168,102.058Z" fill="#000001"/>
    <path id="Path_1361" data-name="Path 1361" d="M359.52,319.937c-2.424-4.913-6.55-4.028-8.875-8.056-.426-.688-1.015-.492-1.6,0s-.3,1.048,0,1.6c1.6,4.454,6.157,3.734,8.187,7.925,3.5,7.107,5.731,2.588,9.1,7.926,2.162,3.274,1.769,3.045,11.036,6.91.492-.459,1.212-.819,1.376-1.343a1.377,1.377,0,0,0-.133-1.058,1.379,1.379,0,0,0-.85-.645c-3.5-1.245-2.849-1.867-5.731-2.522-1.833-.393-2.652-1.67-3.667-3.275C364.694,321.541,362.2,325.438,359.52,319.937Z" fill="#000001"/>
    <path id="Path_1362" data-name="Path 1362" d="M87.938,166.442c-.262,2.849,3.7,4.061,3.963.295a2,2,0,0,0-1.67-2.26,1.965,1.965,0,0,0-2.292,1.965Z" fill="#000001"/>
    <path id="Path_1363" data-name="Path 1363" d="M82.111,165.755a7.563,7.563,0,0,0-.72-2.358,3.275,3.275,0,0,0-4.65-.852,4.912,4.912,0,0,0-.524,4.323c.2.229.753.721,1.048.262s.819-1.932,1.343-1.736a1.77,1.77,0,0,1,1.048,2.064c0,.851-.655,1.211-.2,1.768s1.768-.72,2.489.2.491,1.342.295,2.521,3.275,3.275,3.275-2.652C85.353,165.591,82.471,167.49,82.111,165.755Z" fill="#000001"/>
    <path id="Path_1364" data-name="Path 1364" d="M523.333,570.3c.228-.13.228-.1,0,0Z" fill="#000001"/>
    <path id="Path_1365" data-name="Path 1365" d="M89.607,160.645c0-2.161-4.356-3.275-4.421-.163C85.022,162.97,89.378,163.92,89.607,160.645Z" fill="#000001"/>
    <path id="Path_1366" data-name="Path 1366" d="M536.528,600.071c-18.667-33.011-9.825-17.39-18.274-73.292-3.7-24.693-17.356-77.222-21.974-103.159-3.537-19.945-6.32-31.276-13.361-41.69-32.749-48.4-20.992-31.177-32.192-52.2a112.561,112.561,0,0,0-28.884-32.552c-24-19.649-13.1-15.49-42.573-39.037-5.24-4.192-19.355-11.527-20.894-13.918-2.227-3.472-14.475-27.542-29.67-51.514C258.854,82.343,266.484,51.559,220.636,72.191,179.5,90.727,170.4,99.5,169.352,96.392c-1.8-5.076-4.421-12.445-6.91-21.221-11.724-40.609-9.661-28.2-13.623-42.082-7.7-27.116,1.571-3.635-9.53-32.487-.524-.917-4.814-1.212-3.865,2.292a124.621,124.621,0,0,1,7.238,23.154c4.323,19.42,2.03,5.24,13.754,43.491,4.159,13.558,4.683,16.964,8.81,28.786,1.408,3.93-73.619,35.4-99.523,56.165C58.989,159.86,48.87,183.472,51.85,194.05,54.7,204.1,116.5,309.882,116.758,310.505c-2.031,0-16.571-6.55-24.5,1.768-3.963,4.159-6.124,9.006-2.98,18.4s9.2,14.541,14.933,19.649c23.808,20.567,31.864,19.355,41.623,26.2a81.692,81.692,0,0,0,14.541,8.121c1.965.524,3.8,6.55,9.038,14.8a11.9,11.9,0,0,1,.688,1.474l-13.46-1.8c-8.842-1.211-19.092,2.587-21.679,11a18.734,18.734,0,0,0,2.751,17.357,71.159,71.159,0,0,0,10.807,12.084c26.4,19.027,54.788,21.156,60.879,31.93,16.375,28.82,23.186,40.249,26.723,46.766a129.952,129.952,0,0,0,16.833,24.463,18.241,18.241,0,0,0,19.649,3.079c17.75-7.139,13.1-10.251,17.684-6.288,15.523,13.1,25.085,30.686,38.938,41.493C345.6,593.849,360.7,592.6,363.157,594.962c3.636,3.275,3.537,4.683,11.495,24.791,1.015,2.62,1.31,2.751,3.8,1.408,1.244-.688,2.62.59-6.55-20.37-3.275-7.729-4.093-5.371,4.127-4.585,1.8,0,3.995-.917,3.274-2.62s-1.408-2.03-10.479-3.274c-41.591-6.55-37.628-15.753-65.5-44.67a132.668,132.668,0,0,0-9.53-9.235c-1.081-.95-.786-1.015.557-1.769,100.57-56.983,93.268-53.053,93.268-51.481.786,40.15,9.529,50.761,35.5,76.993,6.943,7.041,27.8,15.85,29.867,15.687a2.037,2.037,0,0,0,2.226-1.572c.524-2.85-.524-2.358-7.826-5.6-10.906-4.847-20.239-8.188-36.318-27.739-12.478-15.163-12.314-18.83-16.375-31.046-2.98-9.268-2.03-17.684-2.783-27.967-3.079-41.854,3.274-52.824-2.915-54.331-12.641-3.275-4.126,3.275-50.531-16.145-9.006-3.766-24.07,4.094-46.437,6.877-10.218,1.277-31.144-2.1-36.744-10.479-7.041-10.447,3.9-21.582,3.275-17-2.194,16.9,37.857,18.961,34.713-13.427-.229-2.325-3.7-2.751-3.471.262,1.146,16.145-8.548,23.186-22.4,20.37-7.794-1.572-5.764-11.4-4.323-12.249,31.8-19.223,37.137-17.52,61.993-22.367,14.082-2.718,13.1-3.471,11.462,0a22.6,22.6,0,0,0-.393,19.027c.557,1.146,2.685,1.245,2.849-.36.295-2.718-3.9-8.056,1.081-18.929,1.768-3.93,1.08-3.046,4.879-3.864,1.834-.361,1.212-.524,1.343,6.549,0,2.686,2.816,3.537,2.816-.458,0-5.6-.524-6.91,1.441-7.139,27.182-3.275,41.394-.852,72.374,2.751,14.082,1.637,17.619,3.635,29.638,8.187a1.978,1.978,0,0,0,1.7-3.57,119.54,119.54,0,0,0-21.123-7.6c-19.06-3.929-4.781,5.109-26.2-27.509-1.7-2.554-43.1-77.385-43.162-77.385s8.449,5.338,13.1,9.006c16.866,13.1,20.435,18.928,27.64,26.2,13.328,13.329,27.41,22.1,35.794,34.386,17.062,24.955,7.336,16.375,26.4,43.654,27.509,39.528,16.866,29.245,31.537,88C525,561.46,512.491,563.949,524.673,588.052a260.8,260.8,0,0,0,17.258,29.114c1.048,1.473,4.127.458,3.57-1.474C543.962,610.845,546.32,617.4,536.528,600.071ZM289.375,134.119c3.7,6.812,8.187,14.442,8.809,15.588,1.409,2.522-2.652,1.409-3.7,7.893a13.523,13.523,0,0,1-5.6,10.152c-10.873,7.958-10.971,8.089-13.591,8.679-6.025,1.31-6.877,6.091-13.427,5.927-4.552-1.441-3.274-.95-4.224-1.932,2.849-1.736,6.811-2.358,5.5-4.421-.885-1.441-2.424,0-5.4,1.146-4.126,1.507-7.532.557-9.006-3.5-.884-2.391,3.275-3.439,5.4-5.043.884-.655,1.408-1.409,1.015-2.424s-1.277-.524-2.653,0c-3.275,1.474-8.678,5.044-11.462.426s-2.128-2.424,8.253-9.825c1.113-.786.72-3.569-4.585-.458a25.576,25.576,0,0,1-7.106,3.635,4.552,4.552,0,0,1-5.371-6.55c2.391-3.7,2.456-4.356,3.275-4.912,6.55-3.832,6.55-6.55,8.711-6.157a18.932,18.932,0,0,1-5.633,6.19,1.276,1.276,0,0,0-.753,1.637c.688,2.1,4.585-.328,6.189-2.587,3.275-4.782,9.039-5.666,13.1-12.216,4.323-7.139-1.932-11.232-6.124-15.293-3.275-3.079-4.781-9.039-1.932-12.478.589-.753.949-.884,5.665,5.7s9.825,6.975,12.052,9.4a28.766,28.766,0,0,1,3.274,4.453c3.275,4.749,10.513,2.489,13.46-.524C285.478,124.884,285.183,126.39,289.375,134.119ZM171.219,118.4c1.8,5.5,1.964,5.732,1.015,6.55-5.993,5.764,1.572,16.08,10.021,11.069,3.275-2.03,4.748-13.1-2.948-13.361-1.6,0-2.718-.557-2.947-2.424-.295-2.881-2.522-4.683,0-5.4,7.3-1.932,16.374,3.831,17.029,14.082-1.9,8.58-2.914,9.825-.949,13.1.72,1.179,0,1.507-3.734,4.782-.851.753-1.244.393-4.159-2.227-1.081-.983-6.55.295-10.872-.753a13.983,13.983,0,0,1-4.225-26.2C170.76,117.122,170.793,117.122,171.219,118.4Zm6.811,9.17c-.262-2.882,3.57-1.506,3.5,2.325,0,5.24-4.486,5.207-7.3,2.719-1.179-1.048-.786-2.489-.687-3.8a2.952,2.952,0,0,1,.982-.393c.328,0,.491.36.721.589a1.67,1.67,0,0,0,2.783-1.441Zm72.636,84.067c12.51-6.55,44.407-25.479,47.78-27.477,6.55-3.864,4.913,1.834,23.678,31.865,1.473,2.391,37.005,65.334,35.27,64.974-7.008-1.539-7.794-3.275-15.425-9.072-2.882-2.226-7.106,1.278-6.124,6.943,2.849,16.375,25.577,7.958,10.414,27.87-.426.556-2.554,0-4.061,0-4.028.425-2.98,4.093-8.088,8.613a15.383,15.383,0,0,0-2.686,11.756c1.277,4,12.379-3.274-76.238,46.471-28.459,15.982-24.922,15.687-45.422,26.2-2.391,1.212-1.9,0-10.414-14.737-72.44-125.919-72.866-99.687-48.73-115.5,15.49-10.152,28-18.176,84.982-49.779,2.947-1.637.59,16.375-7.3,23.481-1.015.95-.295,0-2.521-3.274-.917-1.441-2.424.72-1.965,1.44,2.751,4.389-4.651,5.371-2.326,10.513.688,1.539-.654,6.091,3.734,5.469a4.845,4.845,0,0,1,4.126,1.081c3.275,2.62,20.173-11,21.483-35.074C251.289,215.3,248.047,213.011,250.666,211.636Zm-75.649,8.875c9.465,5.96.393-3.111,14.639,20.271-6.55,3.93-6.55,4.323-7.008,3.275,0,0-4.651-8.547-7.663-14.8-5.306-11.037-11-28.918-10.775-32.749,1.671,1.015,14.606,15.523,24.169,19.453a3.587,3.587,0,0,1,1.375.786,26.822,26.822,0,0,1-14.278,1.408C173.969,218.251,173.707,219.692,175.017,220.511Zm61.306,30.456c-1.507,1.474-4.847,5.338-6.55,4.061-2.653-1.834-5.011,0-4.683-1.408.557-2.686-2.456-2.948-.491-4.29,6.156-4.159,7.008-4.258,10.414-9.825a36.946,36.946,0,0,0,.458-34.452c-9.268-19.387-40.739-47.126-38.643-48.73,7.827-6.124-.328-7.991,25.118,18.47,14.639,15.228,23.939,26.822,26.2,46.4a37.239,37.239,0,0,1-11.822,29.769Zm-41.329-96.642c-.753.459-1.179,0-1.572-.491s-.589-.066,4.257-4.421c.885-.786.393-.884,2.162.458A15.165,15.165,0,0,1,194.994,154.325Zm-3.275-3.57c-.982.524-1.179-.294-1.572-.753s-.72,0,4.192-4.388c.753-.655.819-.295,1.736.688a11.179,11.179,0,0,1-4.29,4.453Zm-39.3,224.855c-24.3-15.425-20.468-7.664-46.7-29.769-7.467-6.321-13.1-12.8-13.3-23.416,0-3.995,2-6.091,4.978-8.809,1.539-1.376,7.827-1.245,9.825-1.179a64.43,64.43,0,0,1,11.593,3.013c2.489.655,2.063,1.506,10.447,15.163,35.663,58.293,28.36,48.337,23.087,45Zm-11.429,48.141c-6.55-9.334.851-22.335,15.26-20.436,21.844,2.882,15.523,2.26,19.944,8.024,1.31,1.7,27.345,50.2,27.28,50.138-31.341-15.85-44.669-12.8-62.55-37.726ZM385.95,477.983c-2.587,1.375-69.688,39.921-84.327,47.911-51.055,27.9-36.678,30.948-91.27-61.044-4.618-7.728-63.4-114.621-78.2-137.873-33.764-53.249-53.544-94.611-65.825-113.7-.229,0-9.825-15.392-9.825-18.863a.951.951,0,0,0,0-.426c-3.013-4.847.917-15.457,1.768-13.493,5.076,11.626,4.945,11,26.723,47.945,2.456,4.159,18.666,34.124,29.473,52.857,16.571,28.786,19.42,28.458,61.633,104.469,3.439,6.189,20.042,35.172,37.923,67,20.7,36.81,26.657,50.27,41.623,70.181,8.417,11.233,13.886,9.825,19.158,8.285,9.825-2.98,32.748-16.177,110.952-60.487.72-.426.95-.327.982.59C386.638,476.771,387.621,477.131,385.95,477.983ZM94.26,230.073c.491,0,11.429-5.076,7.139-12.281-3.439-5.8.786-9.235-1.867-18.241s-3.275-8.744-1.31-8.875c3.275-.2,8.482,3.275,9.039,11.692,1.113,16.9,17.193,9.038,21.646,7.63,2-.622,12.281-1.146,10.153-4.224-.885-1.278-1.8-.328-2.784,0a20.566,20.566,0,0,1-7.238.622c0-.95,1.343-1.343,1.769-1.376a25.078,25.078,0,0,0,8.253-2.128c12.444-1.572,11.1,5.993,8.383,8.121-3.864,3.275-12.084,5.535-10.774,7.4.524.786.982,1.048,6.55-1.278,3.929-1.637,5.469-3.929,6.811-1.375s2.227,5.9-.949,8.024c-4.389,2.947-7.369,3.8-6.55,5.37,1.6,3.275,8.547-5.141,10.381-.36,3.275,9.039-8.383,9.563-6.779,12.543s6.812-4.388,6.943-1.212a9.826,9.826,0,0,1-7.794,8.122c-6.255,1.539-4.847,3.733-9.4,5.273-2.98,1.048-11.233,4.912-16.211,4.912-6.255,0-7.728-4.585-13.95-2.424-1.376.459-.23.917-13.788-23.251-.95-1.67-.622-1.114,2.227-2.686C94.358,230.139,94.325,230.172,94.26,230.073Zm192.593,197.28c-.491-3.471-1.342-4.094,0-4.192,5.8-.36,6.059-.622,6.55.295,2.358,4.814,4.028,5.764,3.963,10.512,0,7.729,6.222,9.825,13.721,8.384,2.62-.524,2.555-.524,2.718,2.194,0,0,1.245,16.375.328,16.375,0,9.6.327,9.6-.753,9.824a36.362,36.362,0,0,1-3.734.491c-8.056,0-6.779,7.7-16.374,9.137-19.42,2.915-16.374-1.375-23.251,0-4.323.852-10.021-.982-10.971-5.37,4.552.556,6.975,1.277,7.074-.721,0-2.947-11.626.2-11.331-8.711.163-4.487,5.993-1.179,8.973-2.686.917-.425,1.768-2.226-2.26-2.554-4.716-.36-9.137-.688-9.431-5.4-.426-6.092.524-3.275,12.215-4.323a.983.983,0,0,0,1.055-1.289.993.993,0,0,0-.4-.513c-3.275-2.161-9.825.459-13.918-2.226a4.52,4.52,0,0,1,0-7.533c4.552-2.718,5.436-2.783,6.746-2.751,6.026,0,6.091-1.768,9.366-1.048,2.1.459-5.436,2.915-7.7,2.751-1.637,0-2.325,2-.426,2.489a12.08,12.08,0,0,0,7.008-1.015C269.1,438.1,288.687,440.223,286.853,427.353ZM399.737,325.6c4.192,8.744,17.128,30.194,17.161,30.26-2.26.393-24.005-3.013-27.869-3.275-24.791-1.572-32.552.557-70.737,7.4-15.392,2.784-25.315,4.487-41.558,12.9-11.789,6.125-19.649,10.251-24.987,17.194a16.734,16.734,0,0,0-.753,19.649c8.973,13.394,31.406,12.346,32.29,14.606,3.668,9.1-3.275,10.218-11.331,11.462-1.31.2-2.718-4.945-6.943-3.6-6.058,1.965-7.925.556-10.054,1.572-5.174,2.489-9.6,4.257-8.612,10.9.589,4.028,3.9,3.963,3.274,5.6a10.38,10.38,0,0,0,1.114,9.432c.426.786,2.522,2,2.227,2.325-1.539,1.9-.819,3.995-.59,6.059.524,4.584,4.028,4.355,3.963,6.058-.2,4.683,2.554,6.157,6.844,8.417s9.366,0,11.921,1.015c4.224,1.6,23.579,1.31,28.589-5.174a8.878,8.878,0,0,1,7.729-4.422c1.31,0,.72.492,1.932,4.814.884,3.046,2.358,3.963,12.87,3.275,18.536-1.179,15.556,6.288,15.752-36.842a29.176,29.176,0,0,0-2.325-11.2c-1.408-3.472-5.469-2.162-18.568-2.424-3.537,0-7.795-.491-9.039,3.079-1.637,4.748-1.408,4.814-2.358,5.01-3.93.852-8.678-.262-9.038-4.323a20.048,20.048,0,0,0-3.57-11.56c-1.244-1.867-2.26-.753,22.171-6.026,9.2-1.965,13.1-4.224,22.367-.36,21.712,9.039,27.7,12.8,45.848,14.606.688,0,.917.295.884.982-2.489,33.961-.688,31.8-2.554,32.749-91.7,50.6-112.2,70.05-123.233,59.178-9.464-9.334-22.465-33.306-23.874-35.828-27.869-51.776-48.467-87.505-65.5-117.077-8.088-14.017-15.752-28.033-22.4-39.3-13.885-23.186-25.183-40.87-37.366-62.223-7.433-12.8-7.63-11.593-5.076-11.953,3.636-.491,5.044,3.275,11.626,2.947,3.275,0,4.978-.458,17.684-5.436,3.275-1.343,3.9-3.6,7.631-4.552,6.32-1.638,12.706-8.417,9.824-14.279-.949-2.03,2.751-2.685.655-8.776a5.856,5.856,0,0,0-2.521-3.9c-1.016-.524,4.257-5.175-2.031-12.216-1.08-1.212,3.668-6.222-2.325-10.971a14.934,14.934,0,0,0-13.1-.589c-4.683,2-9.2.229-10.218,6.55,0,.524,0,.884-.688,1.048-23.382,6.549-8.121-8.351-21.221-18.995a7.857,7.857,0,0,0-7.335-1.572c-4.716,1.408-1.179,6.124.655,14.213,1.277,5.666-1.6,8.351,1.244,16.047,2.227,5.961-1.244,7.467-7.172,9.825-1.212.524-1.506.36-2.129-.753-23.513-42.05-19.354-32.946-20.861-36.384-2.98-6.812-17-21.058,5.927-37.956,9.825-7.205,88.257-46.93,91.7-48.6,1.474-.753,1.113-1.6,3.995,8.155.754,2.62-8.22,3.864-10.25,14.18-2.292,11.691,7.729,22.367,21.385,20.239,3.045-.491,0,2.554,4.814,3.275,3.864.687,1.277,3.275,3.668,3.635,2.947.262,1.08,3.831,3.537,3.8.556,0,0,0,22.923,25.216,12.347,13.493,12.641,13.1,19.65,28.688a9.417,9.417,0,0,1,.687,3.013c0,.328-43.064,25.839-44.21,23.809s-3.275-4.847-4.519-7.369-3.013-5.895-4.585-8.809c-.852-1.638,1.113,0,7.335-2.456,2.62-1.016,4.913-2.489,2.817-4.389-3.046-2.751-5.731-1.539-14.966-10.021-9.825-8.973-15.851-15.719-16.113-10.9-1.047,17.16,18.6,51.186,18.634,51.186.95,1.867-46.47,26.985-49.777,31.8-1.147,1.67,12.477,22.924,26.2,44.669,13.1,20.468,22.924,39.3,48.337,80.89,3.472,5.666-.72,2.98,119.565-64.155,11.265-6.288,10.414-6.55,12.281-6.354,1.015,0,2.259-.425,3.078,0s.819,1.8,1.474,2.522c5.96,6.55,9.333,2.653,9.628,4.192.425,2.489,2.554,3.471,4.29,4.814A6.554,6.554,0,0,0,361,344.7c2-.328,2.784,3.9,8.384,2.423s5.632-1.146,10.119-6.55c3.275-3.831,3.963-1.7,8.482-7.139a79.447,79.447,0,0,0,8.907-11.036C397.445,321.639,397.8,321.574,399.737,325.6ZM338.858,475.461c.655,4.257-7.467,3.013-7.5,2.915-2.686.229-14.8,1.637-14.442,0,1.244-6.288.262-27.018-.361-36.253-.589-8.319-1.375-7.729.361-7.762a26.467,26.467,0,0,1,5.338.426c8.449,1.474,14.442-2.522,15.522,2.423a27.026,27.026,0,0,1,1.081,7.107C338.5,456.139,338.858,475.428,338.858,475.461Zm52.725-163.974c4.487,7.893,7.172,5.7-7.5,22.106-2.1,2.358-4.585,1.6-7.5,5.927a9.821,9.821,0,0,1-10.97,4.421c-2.326-.72,6.058-3.471,3.929-5.927-1.572-1.8-2.881,2.194-8.874,3.962a6.057,6.057,0,0,1-5.928-3.274c-.72-1.605.328-1.933,3.864-5.6,2.26-2.325.786-4.29-1.67-2.39-6.091,4.716-8.285,7.663-13.1.786-.884-1.212,1.015-1.114,7.663-8.973.884-1.081,0-2.489-1.212-1.7-5.5,3.5-4.879,4.748-8.875,7.237a4.617,4.617,0,0,1-7.5-4c1.506-4.913,1.506-5.535,3.013-7.008,3.864-3.734,4.093-7.107,6.124-7.238a16.373,16.373,0,0,1-3.963,7.434c-1.146.95,0,4.159,3.079.786s2.1-4.618,4.65-7.27c6.91-7.271,6.877-10.185,7.827-13.329-2-11.921-13.493-7.041-15.556-18.307a8.552,8.552,0,0,1,.23-3.537c.294-1.342.687-1.342,1.7-.524,18.6,14.8,11.43,4.028,23.743,13.984,4.454,3.6,8.547.426,12.248-2.783C378.713,284.764,385.623,300.942,391.583,311.487Zm-15.85-28.917c-2.522,3.995-7.467,6.55-9.825,3.275-7.139-9.825-1.375-4.29-37.66-66.71-25.97-44.669-23.907-41.1-26.92-39.757s-51.611,28.459-51.677,28.492c-2.423,1.441,0-3.275-14.8-22.466-5.8-7.532-16.866-18.634-26.2-28.983-2.98-3.275-4.912-6.19-7.4-8.744s-1.015-2.816-2.522-3.275c-2.063-.655-1.67-1.506-1.866-3.275s-2.227-.327-2.522-1.244-.786-1.245-.459-2.194a35.837,35.837,0,0,0,1.8-6.845,16.867,16.867,0,0,0-12.117-18.634c-7.434-1.834-8.81,1.736-9.825-1.8-.458-1.376-1.768-5.895-1.768-6.059,0-3.013-6.55,0,20.271-13.722,60.781-31.177,53.937-31.57,90.943,31.538.458.786.458,1.211-.426,1.834-11.593,8.056-8.809-2.031-18.241-6.55-5.371-2.456-7.4-6.059-12.019-11.986s-13.3,7.073-2.914,16.931c3.733,3.569,5.894,4.257,6.287,8.122s-4.846,7.466-7.63,9.824c-.524.393-2.161-.589-3.471-.851-4.323-.852-3.9,2.751-10.513,6.55a23.324,23.324,0,0,0-4.814,6.91,7.795,7.795,0,0,0,6.059,10.643c2.259.229-.884,3.668,6.746,8.318.851.524,3.275.328,3.275,1.081a9.138,9.138,0,0,0,8.318,7.86c1.441,0,1.572,4.388,7.729,4.355a13.389,13.389,0,0,0,10.774-3.7c3.93-3.046,4.716-1.179,8.252-3.7,13.657-9.825,14.967-8.875,17.586-20.927a4.742,4.742,0,0,1,.393-1.015c1.212-2.161,1.867-2.227,3.079,0C301.525,155.635,376.748,280.965,375.733,282.57Z" fill="#000001"/>
    <path id="Path_1367" data-name="Path 1367" d="M116.79,140.112c-2.62,4.094-3.5,5.9-6.55,10.382-.491.72-.36,2.1,1.474,1.8,1.31-.229,3.013-1.376,4.192.2,5.01,6.55,4.454.623,4.126-12.477C120.065,138.017,118.231,137.853,116.79,140.112Z" fill="#000001"/>
    <path id="Path_1368" data-name="Path 1368" d="M357.854,389.56c1.605.524,2.26-.524,2.685-2.227,2.194-8.547,5.273-18.142,1.507-24.528a1.8,1.8,0,0,0-2.227-.459,1.833,1.833,0,0,0-.393,2.227C363.487,371.025,355.4,388.84,357.854,389.56Z" fill="#000001"/>
    <path id="Path_1369" data-name="Path 1369" d="M215.166,93.674c-2.554,1.31.589,5.5,2.751,7.369a2.2,2.2,0,0,0,2.522,0C222.4,99.635,217.982,92.233,215.166,93.674Z" fill="#000001"/>
    <path id="Path_1370" data-name="Path 1370" d="M220.6,87.353c-1.932.36-1.67,3.733-.557,5.338,3.832,5.076,4.388,5.4,5.436,5.4,3.079,0,3.275-2.063,1.474-4.487C222.832,87.746,222.8,86.96,220.6,87.353Z" fill="#000001"/>
    <path id="Path_1371" data-name="Path 1371" d="M219.293,101.665c.262.2.164,0,.426,0C219.457,101.37,219.555,101.37,219.293,101.665Z" fill="#000001"/>
    <path id="Path_1372" data-name="Path 1372" d="M133.2,226.013c2.881,2.849.2,5.567,2.456,8.711s3.013,3.275,3.013,12.117c0,2.423,2.718,2.456,2.914.2s-.327-4.421-.229-5.764c.164-2.1,0-3.274-2.882-7.237-2.1-2.849.655-5.665-2.26-8.58-4.814-4.847-1.9-8.351-5.8-12.281-1.114-1.146-3.275-.229-1.834,1.474C131.165,218.087,128.906,221.788,133.2,226.013Z" fill="#000001"/>
  </g>
</svg>
